REM DIRINDEX 1\2,1\3,1\4,1\6,1\5\7,1\5\8
REM DIRNAME folder01,folder02,folder03,folder04,folder05,folder06,folder07,folder08
TITLE ""
FILE "DB4500_5th_4B_24.mp3" MP3
  TRACK 01 AUDIO
    TITLE "2:cjc114_2467"
    INDEX 01 00:00:00
  TRACK 02 AUDIO
    TITLE "0:"
    INDEX 01 00:00:70
  TRACK 03 AUDIO
    TITLE "3:cjc114_2468"
    INDEX 01 00:01:24
  TRACK 04 AUDIO
    TITLE "0:"
    INDEX 01 00:02:32
  TRACK 05 AUDIO
    TITLE "4:cjc114_2469"
    INDEX 01 00:02:61
  TRACK 06 AUDIO
    TITLE "0:"
    INDEX 01 00:05:09
  TRACK 07 AUDIO
    TITLE "2:cjc114_2470"
    INDEX 01 00:05:61
  TRACK 08 AUDIO
    TITLE "0:"
    INDEX 01 00:06:69
  TRACK 09 AUDIO
    TITLE "3:cjc114_2471"
    INDEX 01 00:07:21
  TRACK 10 AUDIO
    TITLE "0:"
    INDEX 01 00:08:23
  TRACK 11 AUDIO
    TITLE "4:cjc114_2472"
    INDEX 01 00:08:52
  TRACK 12 AUDIO
    TITLE "0:"
    INDEX 01 00:12:05
  TRACK 13 AUDIO
    TITLE "2:cjc114_2473"
    INDEX 01 00:12:60
  TRACK 14 AUDIO
    TITLE "0:"
    INDEX 01 00:13:71
  TRACK 15 AUDIO
    TITLE "3:cjc114_2474"
    INDEX 01 00:14:27
  TRACK 16 AUDIO
    TITLE "0:"
    INDEX 01 00:15:38
  TRACK 17 AUDIO
    TITLE "4:cjc114_2475"
    INDEX 01 00:15:66
  TRACK 18 AUDIO
    TITLE "0:"
    INDEX 01 00:18:35
  TRACK 19 AUDIO
    TITLE "2:cjc114_2476"
    INDEX 01 00:19:16
  TRACK 20 AUDIO
    TITLE "0:"
    INDEX 01 00:20:20
  TRACK 21 AUDIO
    TITLE "3:cjc114_2477"
    INDEX 01 00:20:49
  TRACK 22 AUDIO
    TITLE "0:"
    INDEX 01 00:22:27
  TRACK 23 AUDIO
    TITLE "4:cjc114_2478"
    INDEX 01 00:22:56
  TRACK 24 AUDIO
    TITLE "0:"
    INDEX 01 00:25:15
  TRACK 25 AUDIO
    TITLE "2:cjc114_2479"
    INDEX 01 00:25:68
  TRACK 26 AUDIO
    TITLE "0:"
    INDEX 01 00:27:04
  TRACK 27 AUDIO
    TITLE "3:cjc114_2480"
    INDEX 01 00:27:32
  TRACK 28 AUDIO
    TITLE "0:"
    INDEX 01 00:29:05
  TRACK 29 AUDIO
    TITLE "4:cjc114_2481"
    INDEX 01 00:29:33
  TRACK 30 AUDIO
    TITLE "0:"
    INDEX 01 00:32:11
  TRACK 31 AUDIO
    TITLE "2:cjc114_2482"
    INDEX 01 00:32:64
  TRACK 32 AUDIO
    TITLE "0:"
    INDEX 01 00:33:66
  TRACK 33 AUDIO
    TITLE "3:cjc114_2483"
    INDEX 01 00:34:18
  TRACK 34 AUDIO
    TITLE "0:"
    INDEX 01 00:35:25
  TRACK 35 AUDIO
    TITLE "4:cjc114_2484"
    INDEX 01 00:35:53
  TRACK 36 AUDIO
    TITLE "0:"
    INDEX 01 00:38:73
  TRACK 37 AUDIO
    TITLE "2:cjc114_2485"
    INDEX 01 00:39:56
  TRACK 38 AUDIO
    TITLE "0:"
    INDEX 01 00:40:50
  TRACK 39 AUDIO
    TITLE "3:cjc114_2486"
    INDEX 01 00:40:73
  TRACK 40 AUDIO
    TITLE "0:"
    INDEX 01 00:42:18
  TRACK 41 AUDIO
    TITLE "4:cjc114_2487"
    INDEX 01 00:42:39
  TRACK 42 AUDIO
    TITLE "0:"
    INDEX 01 00:45:41
  TRACK 43 AUDIO
    TITLE "2:cjc114_2488"
    INDEX 01 00:46:15
  TRACK 44 AUDIO
    TITLE "0:"
    INDEX 01 00:47:09
  TRACK 45 AUDIO
    TITLE "3:cjc114_2489"
    INDEX 01 00:47:32
  TRACK 46 AUDIO
    TITLE "0:"
    INDEX 01 00:48:55
  TRACK 47 AUDIO
    TITLE "4:cjc114_2490"
    INDEX 01 00:49:02
  TRACK 48 AUDIO
    TITLE "0:"
    INDEX 01 00:52:41
  TRACK 49 AUDIO
    TITLE "2:cjc114_2491"
    INDEX 01 00:53:13
  TRACK 50 AUDIO
    TITLE "0:"
    INDEX 01 00:54:17
  TRACK 51 AUDIO
    TITLE "3:cjc114_2492"
    INDEX 01 00:54:42
  TRACK 52 AUDIO
    TITLE "0:"
    INDEX 01 00:55:63
  TRACK 53 AUDIO
    TITLE "4:cjc114_2493"
    INDEX 01 00:56:14
  TRACK 54 AUDIO
    TITLE "0:"
    INDEX 01 00:58:69
  TRACK 55 AUDIO
    TITLE "2:cjc114_2494"
    INDEX 01 00:59:43
  TRACK 56 AUDIO
    TITLE "0:"
    INDEX 01 01:00:37
  TRACK 57 AUDIO
    TITLE "3:cjc114_2495"
    INDEX 01 01:00:60
  TRACK 58 AUDIO
    TITLE "0:"
    INDEX 01 01:02:22
  TRACK 59 AUDIO
    TITLE "4:cjc114_2496"
    INDEX 01 01:02:44
  TRACK 60 AUDIO
    TITLE "0:"
    INDEX 01 01:04:41
  TRACK 61 AUDIO
    TITLE "2:cjc114_2497"
    INDEX 01 01:05:13
  TRACK 62 AUDIO
    TITLE "0:"
    INDEX 01 01:06:34
  TRACK 63 AUDIO
    TITLE "3:cjc114_2498"
    INDEX 01 01:06:55
  TRACK 64 AUDIO
    TITLE "0:"
    INDEX 01 01:08:23
  TRACK 65 AUDIO
    TITLE "4:cjc114_2499"
    INDEX 01 01:08:44
  TRACK 66 AUDIO
    TITLE "0:"
    INDEX 01 01:12:58
  TRACK 67 AUDIO
    TITLE "2:cjc114_2500"
    INDEX 01 01:13:30
  TRACK 68 AUDIO
    TITLE "0:"
    INDEX 01 01:14:35
  TRACK 69 AUDIO
    TITLE "3:cjc114_2501"
    INDEX 01 01:14:55
  TRACK 70 AUDIO
    TITLE "0:"
    INDEX 01 01:16:03
  TRACK 71 AUDIO
    TITLE "4:cjc114_2502"
    INDEX 01 01:16:26
  TRACK 72 AUDIO
    TITLE "0:"
    INDEX 01 01:19:54
